<?xml version="1.0" encoding="UTF-8" standalone="no"?>
<svg
   version="1.1"
   viewBox="0 0 212.6 170.08"
   id="svg46"
   width="212.60001"
   height="170.08"
   xmlns="http://www.w3.org/2000/svg"
   xmlns:svg="http://www.w3.org/2000/svg">
  <defs
     id="defs1">
    <style
       id="style1">
      .cls-1 {
        fill: #009cde;
      }

      .cls-2 {
        fill: #fff;
      }
    </style>
  </defs>
  <!-- Generator: Adobe Illustrator 28.7.1, SVG Export Plug-In . SVG Version: 1.2.0 Build 142)  -->
  <g
     id="g1">
    <g
       id="Symbol">
      <polygon
         class="cls-1"
         points="182.67,83.67 182.67,41.73 156.15,28.47 156.15,83.35 "
         id="polygon1" />
      <polygon
         class="cls-1"
         points="153.85,83.32 153.85,27.32 103.28,2.04 103.28,82.7 "
         id="polygon2" />
      <polygon
         class="cls-1"
         points="200.71,83.9 200.71,50.75 184.32,42.55 184.32,83.69 "
         id="polygon3" />
      <polygon
         class="cls-1"
         points="212.6,84.04 212.6,56.69 201.54,51.16 201.54,83.91 "
         id="polygon4" />
      <polygon
         class="cls-1"
         points="103.28,87.38 103.28,168.04 153.85,142.76 153.85,86.76 "
         id="polygon5" />
      <polygon
         class="cls-1"
         points="184.32,86.38 184.32,127.52 200.71,119.33 200.71,86.18 "
         id="polygon6" />
      <polygon
         class="cls-1"
         points="156.15,86.73 156.15,141.61 182.67,128.35 182.67,86.41 "
         id="polygon7" />
      <polygon
         class="cls-1"
         points="201.54,118.92 212.6,113.39 212.6,86.04 201.54,86.17 "
         id="polygon8" />
      <polyline
         class="cls-1"
         points="25.68 36.77 25.68 83.52 42.52 83.08 42.52 39.8"
         id="polyline8" />
      <polygon
         class="cls-1"
         points="25.68,133.31 42.52,130.21 42.52,87 25.68,86.48 "
         id="polygon9" />
    </g>
    <g
       id="g14">
      <polygon
         class="cls-2"
         points="23.97,83.52 23.97,37.62 0,49.61 0,85.04 "
         id="polygon11" />
      <polygon
         class="cls-2"
         points="99.21,0 42.52,28.35 42.52,83.08 99.21,82.69 "
         id="polygon12" />
      <polygon
         class="cls-2"
         points="42.52,87 42.52,141.73 99.21,170.08 99.21,87.39 "
         id="polygon13" />
      <polygon
         class="cls-2"
         points="0,120.47 23.97,132.46 23.97,86.48 0,85.04 "
         id="polygon14" />
    </g>
  </g>
</svg>
